<svg width="95" height="67" viewBox="0 0 95 67" fill="none" xmlns="http://www.w3.org/2000/svg">
<g filter="url(#filter0_d_6657_450)">
<path d="M5.09968 44.7253C5.49968 50.3253 8.93301 55.7253 10.5997 57.7253C11.0998 52.2253 23.5996 48.7253 26.0996 48.7253C28.0996 48.7253 41.9329 44.7253 48.5996 42.7253C57.9329 39.7253 79.0996 32.6254 89.0996 28.2254C92.5996 10.7254 83.0996 -0.774631 82.5996 1.22537C82.1996 2.82537 69.7663 7.55868 63.5996 9.72535C51.4329 14.2253 25.0996 23.5253 17.0996 24.7253C9.09961 25.9253 6.43299 28.892 6.09968 30.2253C5.59968 32.7253 4.69968 39.1253 5.09968 44.7253Z" fill="#3F509E" stroke="#3F509E"/>
<path d="M39.309 27.3464C38.905 27.2822 38.4876 27.2518 38.0566 27.2554C37.6228 27.25 37.2285 27.3054 36.8736 27.4215C36.3946 27.5782 36.048 27.8095 35.8338 28.1153C35.6285 28.4182 35.5868 28.7559 35.7087 29.1284C35.7958 29.3945 35.9658 29.5991 36.2189 29.7422C36.4779 29.8735 36.7829 29.9652 37.1338 30.0173C37.4907 30.0577 37.8595 30.0892 38.2401 30.112C38.5677 30.1226 38.898 30.1569 39.2312 30.2148C39.5704 30.261 39.8901 30.3528 40.1904 30.4902C40.4907 30.6276 40.7596 30.8342 40.9972 31.11C41.2318 31.377 41.4246 31.7411 41.5756 32.2023C41.741 32.7079 41.7648 33.2157 41.6469 33.7257C41.5349 34.2239 41.2801 34.6755 40.8823 35.0806C40.4846 35.4858 39.9442 35.8001 39.2612 36.0236C38.8531 36.1571 38.4394 36.2433 38.0201 36.2823C37.6096 36.3185 37.2068 36.3177 36.8115 36.2801C36.4133 36.2336 36.0359 36.1607 35.6793 36.0614L35.975 34.6241C36.2401 34.7141 36.532 34.7807 36.8505 34.8238C37.169 34.8668 37.4877 34.8804 37.8066 34.8644C38.1254 34.8485 38.4135 34.7984 38.6707 34.7143C38.9457 34.6243 39.2017 34.4914 39.4388 34.3156C39.6819 34.1281 39.8587 33.9032 39.9694 33.6412C40.0889 33.3762 40.0935 33.0752 39.9832 32.7381C39.8932 32.4631 39.7365 32.2542 39.513 32.1113C39.2983 31.9654 39.0391 31.8637 38.7355 31.8059C38.4289 31.7393 38.1059 31.6977 37.7666 31.681C37.4272 31.6644 37.0791 31.6359 36.7222 31.5956C36.3653 31.5552 36.016 31.478 35.6742 31.364C35.3385 31.2382 35.037 31.0521 34.7697 30.8056C34.5025 30.5592 34.2963 30.2142 34.1512 29.7706C33.977 29.2384 33.9503 28.7365 34.071 28.2649C34.1916 27.7934 34.4315 27.3711 34.7907 26.9983C35.1588 26.6225 35.6282 26.3314 36.199 26.125C36.882 25.9015 37.4906 25.7957 38.0248 25.8075C38.5649 25.8075 39.059 25.8619 39.507 25.9706L39.309 27.3464ZM46.5928 33.6687C46.0695 33.84 45.5542 33.8858 45.047 33.8063C44.5486 33.7239 44.1041 33.5059 43.7135 33.1526C43.32 32.7903 43.0173 32.2854 42.8054 31.6379C42.5965 30.9992 42.5466 30.4116 42.6558 29.875C42.771 29.3266 43.0008 28.8586 43.3453 28.4709C43.6987 28.0803 44.1282 27.8023 44.6338 27.6368C45.1749 27.4598 45.6459 27.4284 46.0467 27.5428C46.4534 27.6454 46.7963 27.8082 47.0755 28.0311L47.0653 28.2701L46.8721 27.1843L48.2426 26.7359L50.0843 32.3642L48.594 32.8519L48.1456 31.4814L48.4095 31.7927C48.4003 31.8547 48.3584 31.9666 48.2837 32.1285C48.215 32.2787 48.1107 32.4552 47.9709 32.6581C47.831 32.8609 47.6484 33.0533 47.4231 33.235C47.2067 33.4139 46.9299 33.5584 46.5928 33.6687ZM46.6048 32.3096C46.8797 32.2196 47.1122 32.0896 47.302 31.9194C47.4918 31.7493 47.6331 31.5509 47.7259 31.3241C47.8186 31.0973 47.8598 30.8482 47.8495 30.5766L47.449 29.3524C47.3025 29.145 47.1219 28.9832 46.9071 28.8669C46.6894 28.7417 46.4492 28.6681 46.1867 28.646C45.933 28.621 45.6686 28.6534 45.3937 28.7434C45.0832 28.845 44.824 29.0133 44.6161 29.2483C44.4171 29.4803 44.2813 29.7556 44.2087 30.0739C44.1449 30.3894 44.1697 30.7201 44.2829 31.066C44.3932 31.4031 44.5731 31.683 44.8228 31.9058C45.0724 32.1285 45.3565 32.2762 45.6748 32.3488C45.9932 32.4214 46.3032 32.4083 46.6048 32.3096ZM48.7331 21.3166L50.2234 20.829L53.6194 31.2075L52.1291 31.6951L48.7331 21.3166ZM58.3991 29.8055C57.7338 30.0232 57.124 30.0804 56.5697 29.977C56.0154 29.8735 55.54 29.6363 55.1436 29.2652C54.7472 28.894 54.4532 28.4157 54.2617 27.8303C54.0788 27.2714 54.0553 26.7194 54.1911 26.1741C54.324 25.62 54.5865 25.1315 54.9784 24.7086C55.3763 24.274 55.868 23.9609 56.4534 23.7693C57.2252 23.5168 57.9334 23.5354 58.5782 23.8253C59.229 24.1034 59.7721 24.6229 60.2077 25.3838L56.1711 28.3987L55.5509 27.6736L58.6899 25.2471L58.4272 25.5245C58.2514 25.2874 58.0207 25.1076 57.7351 24.985C57.4465 24.8536 57.1071 24.8517 56.7168 24.9794C56.4064 25.081 56.156 25.2464 55.9659 25.4755C55.7757 25.7047 55.6532 25.9756 55.5984 26.2881C55.5495 26.5889 55.5831 26.9167 55.6992 27.2715C55.8211 27.6441 56.0024 27.9432 56.2432 28.1688C56.4811 28.3856 56.7533 28.5273 57.0599 28.5939C57.3636 28.6517 57.6795 28.6269 58.0078 28.5195C58.2384 28.444 58.4427 28.333 58.6206 28.1864C58.8073 28.0369 58.9765 27.8637 59.1281 27.6668L60.1681 28.5491C59.9363 28.8312 59.6619 29.0879 59.3448 29.3193C59.0337 29.539 58.7185 29.701 58.3991 29.8055Z" fill="#EEEFFB"/>
</g>
<defs>
<filter id="filter0_d_6657_450" x="0.500031" y="0.5" width="93.872" height="66.4727" filterUnits="userSpaceOnUse" color-interpolation-filters="sRGB">
<feFlood flood-opacity="0" result="BackgroundImageFix"/>
<feColorMatrix in="SourceAlpha" type="matrix" values="0 0 0 0 0 0 0 0 0 0 0 0 0 0 0 0 0 0 127 0" result="hardAlpha"/>
<feOffset dy="4"/>
<feGaussianBlur stdDeviation="2"/>
<feComposite in2="hardAlpha" operator="out"/>
<feColorMatrix type="matrix" values="0 0 0 0 0 0 0 0 0 0 0 0 0 0 0 0 0 0 0.25 0"/>
<feBlend mode="normal" in2="BackgroundImageFix" result="effect1_dropShadow_6657_450"/>
<feBlend mode="normal" in="SourceGraphic" in2="effect1_dropShadow_6657_450" result="shape"/>
</filter>
</defs>
</svg>
